<?xml version="1.0" encoding="utf-8"?><!-- Uploaded to: SVG Repo, www.svgrepo.com, Generator: SVG Repo Mixer Tools -->
<svg version="1.1" id="Uploaded to svgrepo.com" xmlns="http://www.w3.org/2000/svg" xmlns:xlink="http://www.w3.org/1999/xlink" 
	 width="800px" height="800px" viewBox="0 0 32 32" xml:space="preserve">
<style type="text/css">
	.bentblocks_een{fill:#0B1719;}
</style>
<path class="bentblocks_een" d="M8,14H4v-2h4V14z M18,12h-4v2h4V12z M20,12v2h4v-2H20z M18,4h-4v2h4V4z M24,4h-4v2h4V4z M14,18h4v-2
	h-4V18z M14,26h4v-2h-4V26z M14,22h14v-2H14V22z M8,8v2c1.654,0,3,1.346,3,3s-1.346,3-3,3v2c2.757,0,5-2.243,5-5
	c0-1.13-0.391-2.162-1.026-3H28V8H8z"/>
</svg>